<svg xmlns="http://www.w3.org/2000/svg" width="640" height="360" viewBox="0 0 640 360" preserveAspectRatio="xMidYMid slice">
  <rect width="640" height="360" fill="#0f172a" />
  <g transform="translate(280 100) scale(2.4)">
    <path d="M46 22.5v14.2c-3.7-.2-7.2-1.6-10-3.8v16c0 11.5-9.3 20.7-20.7 20.7S-5.4 60.4-5.4 48.9c0-11.5 9.3-20.7 20.7-20.7 1.5 0 2.9.2 4.3.5v11.2a9.6 9.6 0 0 0-4.3-1 9.6 9.6 0 0 0-9.6 9.6 9.6 9.6 0 0 0 9.6 9.6 9.6 9.6 0 0 0 9.6-9.6V0H46a16.5 16.5 0 0 0 16.5 16.5v11.5A28 28 0 0 1 46 22.5z" fill="#25f4ee" />
    <path d="M46 18.5v14.2c-3.7-.2-7.2-1.6-10-3.8v16c0 11.5-9.3 20.7-20.7 20.7S-5.4 56.4-5.4 45c0-11.5 9.3-20.7 20.7-20.7 1.5 0 2.9.2 4.3.5V16a9.6 9.6 0 0 0-4.3-1 9.6 9.6 0 0 0-9.6 9.6 9.6 9.6 0 0 0 9.6 9.6 9.6 9.6 0 0 0 9.6-9.6V-4h11.6A16.5 16.5 0 0 0 62.5 12a16.5 16.5 0 0 1-16.5-16.5z" fill="#ff0050" opacity="0.72" />
    <path d="M46 20.5v14.2c-3.7-.2-7.2-1.6-10-3.8v16c0 11.5-9.3 20.7-20.7 20.7S-5.4 58.4-5.4 46.9c0-11.5 9.3-20.7 20.7-20.7 1.5 0 2.9.2 4.3.5V15a9.6 9.6 0 0 0-4.3-1 9.6 9.6 0 0 0-9.6 9.6 9.6 9.6 0 0 0 9.6 9.6 9.6 9.6 0 0 0 9.6-9.6V-2H46a16.5 16.5 0 0 0 16.5 16.5v11.5A28 28 0 0 1 46 20.5z" fill="#ffffff" />
  </g>
  <text x="320" y="328" fill="#f8fafc" font-family="Arial, Helvetica, sans-serif" font-size="24" font-weight="600" text-anchor="middle">
    TikTok
  </text>
</svg>
